<svg width="489" height="438" viewBox="0 0 489 438" fill="none" xmlns="http://www.w3.org/2000/svg">
<path opacity="0.15" d="M95.0897 331.092C109.675 340.922 128.452 347 149.269 348.114C149.278 348.202 149.283 348.289 149.292 348.377C155.656 409.539 225.671 448.537 305.675 435.482C381.873 423.048 439.648 367.88 439.476 309.818C471.734 290.823 491.894 260.103 488.661 229.026C486.607 209.284 475.454 192.713 458.604 181.195C467.366 164.259 471.417 145.987 469.507 127.623C463.143 66.4609 393.128 27.4628 313.124 40.5182C262.395 48.7963 219.839 76.0183 197.103 110.422C177.546 106.639 156.063 106.237 133.804 109.87C53.7992 122.925 -5.89854 183.09 0.464982 244.252C5.10439 288.842 43.5802 321.645 95.0897 331.092Z" fill="#A7A7A7"/>
<rect x="49" y="155" width="414" height="236" rx="8" fill="#ADD3FF"/>
<rect x="70" y="190" width="59" height="13" rx="2" fill="#88BFFF"/>
<rect x="70" y="212" width="59" height="13" rx="2" fill="#88BFFF"/>
<rect x="70" y="234" width="59" height="13" rx="2" fill="#88BFFF"/>
<rect x="70" y="256" width="59" height="13" rx="2" fill="#88BFFF"/>
<rect x="70" y="278" width="59" height="13" rx="2" fill="#88BFFF"/>
<rect x="70" y="300" width="59" height="13" rx="2" fill="#88BFFF"/>
<rect x="70" y="322" width="59" height="13" rx="2" fill="#88BFFF"/>
<rect x="69" y="344" width="59" height="13" rx="2" fill="#88BFFF"/>
<rect x="136" y="190" width="59" height="13" rx="2" fill="#88BFFF"/>
<rect x="136" y="212" width="59" height="13" rx="2" fill="#88BFFF"/>
<rect x="136" y="234" width="59" height="13" rx="2" fill="#88BFFF"/>
<rect x="136" y="256" width="59" height="13" rx="2" fill="#88BFFF"/>
<rect x="136" y="278" width="59" height="13" rx="2" fill="#88BFFF"/>
<rect x="136" y="300" width="59" height="13" rx="2" fill="#88BFFF"/>
<rect x="136" y="322" width="59" height="13" rx="2" fill="#88BFFF"/>
<rect x="135" y="344" width="59" height="13" rx="2" fill="#88BFFF"/>
<rect x="382" y="190" width="59" height="13" rx="2" fill="#88BFFF"/>
<rect x="382" y="212" width="59" height="13" rx="2" fill="#88BFFF"/>
<rect x="382" y="234" width="59" height="13" rx="2" fill="#88BFFF"/>
<rect x="382" y="256" width="59" height="13" rx="2" fill="#88BFFF"/>
<rect x="382" y="278" width="59" height="13" rx="2" fill="#88BFFF"/>
<rect x="382" y="300" width="59" height="13" rx="2" fill="#88BFFF"/>
<rect x="382" y="322" width="59" height="13" rx="2" fill="#88BFFF"/>
<rect x="381" y="344" width="59" height="13" rx="2" fill="#88BFFF"/>
<path d="M346.7 228.607C346.7 273.663 335.319 314.43 316.946 343.916C298.568 373.41 273.244 391.553 245.356 391.553C217.468 391.553 192.144 373.41 173.766 343.916C155.393 314.43 144.012 273.663 144.012 228.607C144.012 217.738 143.884 206.688 143.755 195.658C143.351 160.843 142.948 126.223 146.596 98.0996C148.998 79.5839 153.149 63.9548 160.165 52.9658C167.161 42.0093 177.002 35.6657 190.873 35.6657C197.215 35.6657 201.829 32.5594 205.658 28.2481C208.456 25.097 210.872 21.2542 213.248 17.4745C214.103 16.1149 214.953 14.7635 215.813 13.4554C219.094 8.46714 222.539 4.09166 227.081 1.93083C231.58 -0.209266 237.261 -0.22044 245.129 3.77784C250.172 6.34032 255.557 10.9669 261.124 17.239C266.687 23.5062 272.41 31.3913 278.136 40.4404C289.586 58.5385 301.024 81.2596 311.186 104.927C321.348 128.593 330.229 153.194 336.569 175.046C342.913 196.91 346.7 215.982 346.7 228.607Z" fill="#7FBAFF" stroke="#A6CFFF"/>
<path d="M216 53.8594L228.465 136.546L258.46 291.89L232.945 136.116L216 53.8594Z" fill="#A6CFFF"/>
<path d="M281.051 256.936C285.537 290.864 280.596 322.748 269.006 346.865C257.414 370.987 239.206 387.282 217.172 390.195C195.138 393.108 173.321 382.106 155.858 361.826C138.399 341.55 125.34 312.046 120.854 278.118C118.605 261.108 116.648 246.196 115.669 233.295C114.691 220.392 114.696 209.536 116.356 200.634C118.016 191.741 121.322 184.83 126.926 179.774C132.535 174.714 140.499 171.463 151.566 170C156.632 169.33 159.939 166.261 162.458 162.283C164.334 159.321 165.806 155.799 167.252 152.337C167.735 151.182 168.214 150.034 168.705 148.916C170.689 144.397 172.859 140.353 176.133 137.962C179.361 135.605 183.755 134.797 190.351 136.977C198.881 139.796 208.507 146.299 218.242 155.109C227.971 163.911 237.776 174.987 246.668 186.908C264.467 210.77 278.538 237.927 281.051 256.936Z" fill="#7FBAFF" stroke="#A6CFFF"/>
<path d="M180.203 199.898L193.181 262.838L224.281 380.681L197.756 262.233L180.203 199.898Z" fill="#A6CFFF"/>
<g filter="url(#filter0_b_66223_52999)">
<rect x="202" y="94" width="212" height="298" rx="8" fill="#1976D2"/>
</g>
<g filter="url(#filter1_b_66223_52999)">
<path d="M228.457 130.939C228.373 127.844 230.859 125.289 233.955 125.289H377.428C380.504 125.289 382.983 127.813 382.926 130.89L378.645 364.035C378.59 367.033 376.144 369.435 373.145 369.435H240.285C237.306 369.435 234.869 367.063 234.788 364.084L228.457 130.939Z" stroke="#A6CFFF" stroke-width="5"/>
</g>
<rect x="263.281" y="232.086" width="88.7261" height="69.408" rx="12" fill="url(#paint0_linear_66223_52999)"/>
<path d="M282.63 226.946C280.833 226.946 279.461 225.343 279.737 223.568L281.312 213.451C282.199 207.755 287.104 203.555 292.869 203.555H322.026C327.843 203.555 332.775 207.829 333.603 213.587L335.077 223.84C335.312 225.479 334.041 226.946 332.385 226.946C331.109 226.946 330.004 226.059 329.729 224.812L327.424 214.357C326.754 211.321 324.064 209.159 320.955 209.159H307.227H293.499C290.423 209.159 287.793 211.373 287.267 214.404L285.515 224.518C285.272 225.921 284.054 226.946 282.63 226.946Z" fill="url(#paint1_linear_66223_52999)"/>
<path d="M315.782 260.884C315.782 263.238 314.303 269.375 310.606 269.375C306.909 269.375 307.392 269.375 305.061 269.375C302.473 269.375 299.516 265.778 299.516 260.884C299.516 255.99 303.157 252.023 307.649 252.023C312.141 252.023 315.782 255.99 315.782 260.884Z" fill="#DB6555"/>
<path d="M304.412 269.931C304.575 268.969 305.408 268.266 306.383 268.266H309.34C310.293 268.266 311.114 268.938 311.301 269.873L313.088 278.795C313.336 280.032 312.389 281.187 311.127 281.187H304.868C303.63 281.187 302.689 280.073 302.897 278.852L304.412 269.931Z" fill="#DB6555"/>
<path d="M226.591 231.288L272.063 253.07L280.187 248.656L272.063 255.655L224.377 232.47L226.591 231.288Z" fill="#DB6555"/>
<path d="M233.602 216.906L236.189 224.659L280.183 248.657L272.031 253.463L227.298 231.681L233.602 216.906Z" fill="#ED7969"/>
<path d="M233.61 216.898L242.105 220.963L241.365 223.548L244.323 225.025L245.432 222.809L247.65 223.548L246.911 226.132L248.759 227.24L249.868 225.025L252.456 226.132L252.456 227.978L255.414 229.455L256.892 228.347L258.741 229.455L258.001 231.301L261.698 233.147L263.177 231.301L266.135 233.147L265.026 235.362L268.722 237.577L270.571 235.362L276.116 238.315L280.191 248.649L236.179 224.657L233.61 216.898Z" fill="#ED917F"/>
<path d="M227.975 214.685C227.975 226.249 218.586 235.636 206.988 235.636C195.389 235.636 186 226.249 186 214.685C186 203.122 195.389 193.734 206.988 193.734C218.586 193.734 227.975 203.122 227.975 214.685Z" stroke="#DB6555" stroke-width="12"/>
<path d="M227.973 213.951C227.973 225.672 218.759 234.902 207.725 234.902C196.69 234.902 187.477 225.672 187.477 213.951C187.477 202.23 196.69 193 207.725 193C218.759 193 227.973 202.23 227.973 213.951Z" stroke="#ED7969" stroke-width="12"/>
<path fill-rule="evenodd" clip-rule="evenodd" d="M209.81 235.611C221.039 235.611 230.143 226.52 230.143 215.306C230.143 204.091 221.039 195 209.81 195C198.58 195 189.477 204.091 189.477 215.306C189.477 226.52 198.58 235.611 209.81 235.611ZM202.416 209.029C204.662 209.029 206.482 207.211 206.482 204.968C206.482 202.725 204.662 200.907 202.416 200.907C200.17 200.907 198.349 202.725 198.349 204.968C198.349 207.211 200.17 209.029 202.416 209.029Z" fill="#F09893"/>
<defs>
<filter id="filter0_b_66223_52999" x="198" y="90" width="220" height="306" filterUnits="userSpaceOnUse" color-interpolation-filters="sRGB">
<feFlood flood-opacity="0" result="BackgroundImageFix"/>
<feGaussianBlur in="BackgroundImageFix" stdDeviation="2"/>
<feComposite in2="SourceAlpha" operator="in" result="effect1_backgroundBlur_66223_52999"/>
<feBlend mode="normal" in="SourceGraphic" in2="effect1_backgroundBlur_66223_52999" result="shape"/>
</filter>
<filter id="filter1_b_66223_52999" x="221.953" y="118.789" width="167.477" height="257.148" filterUnits="userSpaceOnUse" color-interpolation-filters="sRGB">
<feFlood flood-opacity="0" result="BackgroundImageFix"/>
<feGaussianBlur in="BackgroundImageFix" stdDeviation="2"/>
<feComposite in2="SourceAlpha" operator="in" result="effect1_backgroundBlur_66223_52999"/>
<feBlend mode="normal" in="SourceGraphic" in2="effect1_backgroundBlur_66223_52999" result="shape"/>
</filter>
<linearGradient id="paint0_linear_66223_52999" x1="278.5" y1="245" x2="330.5" y2="301" gradientUnits="userSpaceOnUse">
<stop stop-color="#F29E9A"/>
<stop offset="1" stop-color="#FA7F78"/>
</linearGradient>
<linearGradient id="paint1_linear_66223_52999" x1="288" y1="204" x2="336" y2="227" gradientUnits="userSpaceOnUse">
<stop stop-color="#F09893"/>
<stop offset="1" stop-color="#FA817A"/>
</linearGradient>
</defs>
</svg>
