<svg width="87" height="20" viewBox="0 0 87 20" fill="none" xmlns="http://www.w3.org/2000/svg">
<path d="M2.55995 18.7334C2.55995 19.0436 2.43928 19.3452 2.19793 19.6381C1.90488 19.8794 1.6032 20 1.2929 20C0.93089 20 0.629213 19.8794 0.387871 19.6381C0.12929 19.3796 0 19.0781 0 18.7334V7.12729C0 5.35234 0.637832 3.82726 1.9135 2.55205C3.18916 1.27684 4.71479 0.639235 6.49037 0.639235C8.2832 0.639235 9.81744 1.27684 11.0931 2.55205C12.3515 3.81002 12.9807 5.3351 12.9807 7.12729C12.9807 8.93671 12.3515 10.4704 11.0931 11.7284C9.83468 12.9864 8.30044 13.6153 6.49037 13.6153C5.04232 13.6153 3.73218 13.1759 2.55995 12.2971V18.7334ZM2.55995 7.15314C2.55995 8.22155 2.94782 9.1435 3.72356 9.91896C4.48206 10.6772 5.40433 11.0563 6.49037 11.0563C7.57641 11.0563 8.5073 10.6686 9.28304 9.89311C10.0415 9.13488 10.4208 8.21294 10.4208 7.12729C10.4208 6.09334 10.0415 5.17139 9.28304 4.36147C8.5073 3.586 7.57641 3.19827 6.49037 3.19827C5.40433 3.19827 4.48206 3.57738 3.72356 4.33562C2.94782 5.11108 2.55995 6.04164 2.55995 7.12729V7.15314Z" fill="white"/>
<path d="M17.8358 8.29049C18.1116 9.08318 18.5857 9.72079 19.258 10.2033C19.9648 10.703 20.7319 10.9529 21.5594 10.9529C21.8869 10.9529 22.0593 10.9443 22.0765 10.9271L22.4902 10.8754L22.6454 10.8495L22.7747 10.8237C23.3091 10.703 23.8693 10.4618 24.4555 10.0999C24.7485 9.91034 25.0674 9.8845 25.4122 10.0224C25.7742 10.1602 26.0242 10.3842 26.1621 10.6944C26.4724 11.332 26.2655 11.9007 25.5415 12.4004C24.6796 12.9002 23.9211 13.2276 23.266 13.3827L23.085 13.4086L22.8781 13.4344L22.6195 13.4602L22.3351 13.4861L21.9472 13.5119H21.5594C19.7665 13.5119 18.2323 12.8743 16.9566 11.5991C15.6982 10.3412 15.069 8.81608 15.069 7.02389C15.069 5.21448 15.6982 3.68078 16.9566 2.4228C18.215 1.16483 19.7493 0.53584 21.5594 0.53584C23.3005 0.53584 24.7744 1.08728 25.9811 2.19016C27.3602 3.43091 28.0497 5.04215 28.0497 7.02389C28.0497 7.33408 27.9291 7.63565 27.6877 7.9286C27.3947 8.16986 27.0844 8.29049 26.7568 8.29049H17.8358ZM25.3088 5.73145C25.0502 4.86982 24.5503 4.20637 23.809 3.74109C23.1712 3.31028 22.4213 3.09487 21.5594 3.09487C20.7319 3.09487 19.9648 3.34474 19.258 3.84449C18.5857 4.327 18.1116 4.95599 17.8358 5.73145H25.3088Z" fill="white"/>
<path d="M42.3672 4.77505C42.2638 5.10246 42.0655 5.36095 41.7725 5.55051C41.4622 5.72284 41.1346 5.7573 40.7899 5.65391C40.4623 5.58498 40.2038 5.39542 40.0141 5.08523C39.2729 3.77556 38.1351 3.12072 36.6009 3.12072C35.5665 3.12072 34.6443 3.49984 33.8341 4.25807C33.0583 5.03353 32.6704 5.96409 32.6704 7.04974C32.6704 8.11816 33.0583 9.0401 33.8341 9.81557C34.6098 10.591 35.5321 10.9788 36.6009 10.9788C38.0317 10.9788 39.135 10.3756 39.9107 9.16934C40.0831 8.89362 40.3589 8.71268 40.7382 8.62652C41.0829 8.54036 41.4018 8.59205 41.6949 8.78161C41.9707 8.95394 42.1517 9.22104 42.2379 9.58293C42.3069 9.78972 42.2465 10.1171 42.0569 10.5652C41.4708 11.4957 40.6951 12.2195 39.7297 12.7365C38.7816 13.2707 37.7386 13.5378 36.6009 13.5378C34.8253 13.5378 33.2997 12.9002 32.024 11.625C30.7656 10.367 30.1364 8.84193 30.1364 7.04974C30.1364 5.24032 30.7656 3.70663 32.024 2.44865C33.2824 1.19068 34.808 0.561688 36.6009 0.561688C37.7731 0.561688 38.8591 0.854642 39.859 1.44055C40.8243 1.95753 41.6173 2.74161 42.2379 3.79279C42.4103 3.96512 42.4534 4.29253 42.3672 4.77505Z" fill="white"/>
<path d="M55.5871 14.6493C55.5871 16.1141 55.0614 17.3634 54.0098 18.3974C52.9582 19.4486 51.6998 19.9742 50.2345 19.9742C49.2002 19.9742 48.2607 19.707 47.416 19.1728C46.5541 18.6214 45.899 17.889 45.4508 16.9757C45.2956 16.631 45.2784 16.3036 45.3991 15.9934C45.5025 15.666 45.718 15.4248 46.0455 15.2697C46.3558 15.1146 46.6747 15.0973 47.0023 15.218C47.3643 15.3558 47.6056 15.5712 47.7263 15.8642C48.2779 16.8981 49.114 17.4151 50.2345 17.4151C51.0275 17.4151 51.6912 17.148 52.2256 16.6138C52.76 16.0796 53.0272 15.4248 53.0272 14.6493V12.7882C52.2342 13.2707 51.3464 13.5119 50.3638 13.5119C48.933 13.5119 47.7177 13.0122 46.7178 12.0127C45.718 10.996 45.2008 9.7811 45.1663 8.36803V1.90583C45.1663 1.59564 45.287 1.29407 45.5284 1.00112C45.8214 0.759863 46.1231 0.639235 46.4334 0.639235C46.7437 0.639235 47.0454 0.759863 47.3384 1.00112C47.5798 1.29407 47.7004 1.59564 47.7004 1.90583V8.31633C47.7004 9.05733 47.9676 9.68632 48.502 10.2033C49.0192 10.7203 49.6398 10.9788 50.3638 10.9788C51.1051 10.9788 51.7343 10.7203 52.2515 10.2033C52.7686 9.68632 53.0272 9.05733 53.0272 8.31633V1.90583C53.0272 1.59564 53.1479 1.29407 53.3892 1.00112C53.6823 0.759863 53.9839 0.639235 54.2942 0.639235C54.6218 0.639235 54.9321 0.759863 55.2251 1.00112C55.4665 1.29407 55.5871 1.59564 55.5871 1.90583V14.6493Z" fill="white"/>
<path d="M60.7608 18.7334C60.7608 19.0436 60.6401 19.3452 60.3988 19.6381C60.1057 19.8794 59.804 20 59.4937 20C59.1317 20 58.83 19.8794 58.5887 19.6381C58.3301 19.3796 58.2008 19.0781 58.2008 18.7334V7.12729C58.2008 5.35234 58.8387 3.82726 60.1143 2.55205C61.39 1.27684 62.9156 0.639235 64.6912 0.639235C66.484 0.639235 68.0183 1.27684 69.2939 2.55205C70.5524 3.81002 71.1816 5.3351 71.1816 7.12729C71.1816 8.93671 70.5524 10.4704 69.2939 11.7284C68.0355 12.9864 66.5013 13.6153 64.6912 13.6153C63.2431 13.6153 61.933 13.1759 60.7608 12.2971V18.7334ZM60.7608 7.15314C60.7608 8.22155 61.1486 9.1435 61.9244 9.91896C62.6829 10.6772 63.6052 11.0563 64.6912 11.0563C65.7772 11.0563 66.7081 10.6686 67.4839 9.89311C68.2424 9.13488 68.6216 8.21294 68.6216 7.12729C68.6216 6.09334 68.2424 5.17139 67.4839 4.36147C66.7081 3.586 65.7772 3.19827 64.6912 3.19827C63.6052 3.19827 62.6829 3.57738 61.9244 4.33562C61.1486 5.11108 60.7608 6.04164 60.7608 7.12729V7.15314Z" fill="white"/>
<path d="M79.2785 4.11232C79.2785 3.78787 79.5416 3.52484 79.8662 3.52484H80.1488C80.4733 3.52484 80.7364 3.78787 80.7364 4.11232V6.13864C80.7364 6.56557 81.1776 6.84993 81.5666 6.67377L83.4647 5.81428C83.7524 5.68402 84.0916 5.80432 84.2329 6.08669L84.3048 6.23049C84.4499 6.52069 84.3323 6.87357 84.042 7.01867L80.129 8.97448C79.7382 9.16978 79.2785 8.88574 79.2785 8.44902V4.11232Z" fill="#45B5F3"/>
<path d="M86.0305 9.03393C86.6199 9.24364 86.9353 9.89741 86.634 10.4455C86.0374 11.5304 85.162 12.4453 84.0894 13.0904C82.6914 13.9312 81.0449 14.2614 79.4306 14.0248C77.8163 13.7881 76.334 12.9993 75.2364 11.7926C74.1387 10.586 73.4935 9.03615 73.4107 7.40727C73.328 5.77839 73.8128 4.17121 74.7825 2.85959C75.7522 1.54797 77.1469 0.613044 78.729 0.214126C80.311 -0.184793 81.9824 -0.0230265 83.4585 0.671862C84.5909 1.20497 85.5546 2.02656 86.258 3.04546C86.6134 3.56016 86.3658 4.24251 85.8007 4.51083C85.2356 4.77916 84.569 4.5268 84.1755 4.04056C83.7245 3.48315 83.1508 3.03029 82.4932 2.72073C81.4913 2.24907 80.3569 2.13927 79.2831 2.41004C78.2093 2.68081 77.2626 3.31538 76.6044 4.20565C75.9462 5.09592 75.6171 6.18679 75.6733 7.29239C75.7295 8.398 76.1674 9.44993 76.9125 10.269C77.6575 11.088 78.6636 11.6234 79.7593 11.784C80.855 11.9446 81.9726 11.7205 82.9215 11.1498C83.5443 10.7752 84.0692 10.2666 84.4614 9.66638C84.8035 9.1428 85.4412 8.82422 86.0305 9.03393Z" fill="white"/>
</svg>
