<svg width="99" height="100" viewBox="0 0 99 100" fill="none" xmlns="http://www.w3.org/2000/svg">
<path d="M4.68535 53.518C5.39779 58.9213 8.32033 64.0009 12.2936 67.6484C14.1421 69.3234 16.1519 70.7507 18.4576 71.7239C20.6126 72.6578 23.1172 73.0552 25.4692 73.2355C26.5905 73.3194 27.7243 73.2938 28.8168 73.2414C30.2233 73.1584 31.6298 73.0753 33.0075 72.8559C35.6535 72.4047 38.0982 70.9991 40.1715 69.3514C42.3667 67.6068 44.2299 65.4694 45.8598 63.2388C47.6511 60.7606 49.3168 58.0241 50.4621 55.1838C51.6199 52.234 51.9542 48.9239 50.6524 45.9589C49.5051 43.3885 47.1363 41.6097 44.2928 41.4618C41.7362 41.3247 39.1515 42.4038 37.2558 44.0496C35.1844 45.8749 34.0497 48.4282 33.8462 51.1767C33.4286 56.9608 36.8645 62.7865 40.976 66.5829C43.1008 68.5555 45.6597 70.223 48.4964 71.0131C51.5519 71.8283 54.65 71.4952 57.5469 70.2078C60.6339 68.8091 63.3851 66.6625 66.0144 64.6127C68.8606 62.4104 71.61 60.0862 74.1799 57.5861C79.3341 52.6543 84.018 47.1808 88.1242 41.3307C89.1336 39.8718 90.075 38.4273 91.0019 36.9146C91.8213 35.567 89.7576 34.2222 88.9383 35.5699C81.9243 46.8748 72.7229 56.7542 61.9832 64.573C59.6373 66.2782 57.1012 68.0947 54.2525 68.7667C51.7447 69.3668 49.1576 68.9157 46.8913 67.7917C44.5012 66.587 42.4195 64.8188 40.745 62.7868C39.126 60.8499 37.7223 58.5828 36.9589 56.145C36.2099 53.7754 35.9919 51.2226 36.8414 48.8362C37.5313 46.8751 39.2638 45.2993 41.1812 44.4321C43.0449 43.6474 45.135 43.5982 46.7321 44.7565C48.715 46.2251 49.2219 48.9662 48.9322 51.3057C48.5673 54.3018 46.8066 57.094 45.2754 59.6241C43.9989 61.6733 42.489 63.6294 40.7997 65.4097C39.0961 67.1218 37.186 68.6994 34.9421 69.7067C32.7932 70.6584 30.348 70.7113 28.0266 70.8449C25.8415 70.9498 23.6796 70.6582 21.5427 70.1477C19.5297 69.7178 17.9219 68.8465 16.2154 67.6757C12.4577 65.0506 9.36873 61.0386 7.90137 56.6133C7.50624 55.415 7.26183 54.2562 7.0712 53.0148C6.9687 52.36 6.24018 51.9441 5.62667 52.0735C4.945 52.2172 4.58285 52.8632 4.68535 53.518Z" fill="#BABABA"/>
<path d="M67.2656 46.9667C72.4652 43.7696 77.9019 41.0209 83.5199 38.6256C84.8939 38.051 86.336 37.4621 87.7244 36.9556C88.2554 36.7724 88.867 36.4654 89.468 36.4455C89.8914 36.4274 89.9201 36.5637 89.9382 36.9871C89.9995 37.615 89.9513 38.2304 89.903 38.8457C89.8836 39.5974 89.796 40.3635 89.7083 41.1296C89.5869 42.5792 89.356 44.0163 89.0569 45.4677C88.38 48.6721 87.3747 51.8389 86.0806 54.8175C85.8135 55.4078 86.2999 56.1952 86.9028 56.3529C87.5882 56.5643 88.1854 56.1891 88.4381 55.5307C89.7054 52.5934 90.6982 49.536 91.3482 46.3729C91.6867 44.7707 91.9839 43.1416 92.1448 41.5413C92.2931 40.0504 92.4953 38.477 92.3978 37.0024C92.2985 35.3501 91.3418 34.0211 89.6196 33.9571C88.048 33.9326 86.4445 34.7692 85.0292 35.3169C81.9403 36.538 78.8803 37.8954 75.9171 39.3748C72.6006 41.0355 69.3397 42.7912 66.1901 44.7371C65.6197 45.071 65.3401 45.7708 65.6471 46.3824C65.886 47.0084 66.7365 47.3275 67.2656 46.9667Z" fill="#BABABA"/>
</svg>
